<?xml version="1.0" encoding="UTF-8"?>
<svg version="1.1" xmlns="http://www.w3.org/2000/svg" width="256" height="256">
<path d="M0 0 C4.45975341 4.02465552 7.06131718 7.43286728 8.5625 13.3125 C8.5625 14.6325 8.5625 15.9525 8.5625 17.3125 C9.73554687 17.4259375 10.90859375 17.539375 12.1171875 17.65625 C32.35760054 20.21855284 51.4671752 35.77878649 63.5625 51.3125 C73.34464872 65.04085644 81.14508633 83.12620338 80.5625 100.3125 C81.490625 100.23 82.41875 100.1475 83.375 100.0625 C86.5625 100.3125 86.5625 100.3125 88.36328125 101.765625 C90.25877849 105.79124128 88.98836408 109.12243048 87.9375 113.3125 C87.75832031 114.11945313 87.57914063 114.92640625 87.39453125 115.7578125 C85.62400075 123.26089979 85.62400075 123.26089979 82.5625 126.3125 C79.98149203 126.71641225 77.82010382 126.85735627 75.23657227 126.8271637 C74.48475205 126.83410922 73.73293184 126.84105475 72.9583292 126.84821075 C70.43155575 126.86655105 67.90571377 126.85619749 65.37890625 126.84594727 C63.57053929 126.85300218 61.76217824 126.86174538 59.9538269 126.87205505 C55.03650827 126.8946058 50.11951062 126.89159626 45.20215988 126.88273358 C41.10147815 126.87763321 37.00085724 126.88490843 32.90018177 126.89220566 C23.22929915 126.90922241 13.55857425 126.90562056 3.88769531 126.88891602 C-6.10026774 126.87198726 -16.087794 126.88783563 -26.07570934 126.9201389 C-34.64223313 126.94679876 -43.20862065 126.95412073 -51.77518177 126.94562382 C-56.89553838 126.94068474 -62.015632 126.94296319 -67.13595581 126.96341133 C-71.94925599 126.98171232 -76.76192561 126.97587853 -81.5751915 126.95121193 C-83.34451861 126.94618647 -85.1138933 126.94973854 -86.88318253 126.96236038 C-89.29337951 126.97819789 -91.70147619 126.96343143 -94.11157227 126.94068909 C-94.81672187 126.95252482 -95.52187147 126.96436054 -96.24838924 126.97655493 C-98.20314026 126.93891239 -98.20314026 126.93891239 -101.4375 126.3125 C-105.90328795 120.76112096 -107.54293435 112.22773213 -107.75 105.1875 C-107.4375 102.3125 -107.4375 102.3125 -105.4375 100.3125 C-102.3125 100.1875 -102.3125 100.1875 -99.4375 100.3125 C-99.30794922 98.96671875 -99.30794922 98.96671875 -99.17578125 97.59375 C-96.39093766 72.86229504 -86.06539122 51.84972527 -67.03125 35.37109375 C-55.13743658 25.93127497 -42.0535088 19.98812352 -27.4375 16.3125 C-27.30794922 15.44238281 -27.30794922 15.44238281 -27.17578125 14.5546875 C-25.89791089 7.45019724 -23.81078264 3.7219876 -17.8125 -0.5625 C-11.70422738 -2.59859087 -5.83354957 -2.86374251 0 0 Z M-17.4375 12.3125 C-17.4375 13.3025 -17.4375 14.2925 -17.4375 15.3125 C-12.1575 15.3125 -6.8775 15.3125 -1.4375 15.3125 C-1.93935096 10.52976351 -1.93935096 10.52976351 -4.125 8.5 C-10.06621399 5.44910633 -13.49717036 7.32914192 -17.4375 12.3125 Z M-69.4375 50.3125 C-81.39020487 64.55383048 -89.4375 81.54257067 -89.4375 100.3125 C-36.3075 100.3125 16.8225 100.3125 71.5625 100.3125 C67.96109522 75.10266653 58.89318704 55.25864863 38.5625 39.3125 C4.67138566 15.79022375 -41.00428564 20.06246683 -69.4375 50.3125 Z M-97.4375 109.3125 C-96.7775 111.9525 -96.1175 114.5925 -95.4375 117.3125 C-38.6775 117.3125 18.0825 117.3125 76.5625 117.3125 C78.74819534 112.74578912 78.74819534 112.74578912 78.5625 109.3125 C20.4825 109.3125 -37.5975 109.3125 -97.4375 109.3125 Z " fill="#192E32" transform="translate(107.4375,129.6875)"/>
<path d="M0 0 C2 2 2 2 2.22705078 3.97119141 C2.21134033 5.1494751 2.21134033 5.1494751 2.1953125 6.3515625 C2.18564453 7.62773437 2.18564453 7.62773437 2.17578125 8.9296875 C2.15064453 10.26386719 2.15064453 10.26386719 2.125 11.625 C2.11597656 12.5221875 2.10695312 13.419375 2.09765625 14.34375 C2.0740497 16.56276586 2.0411231 18.78125077 2 21 C3.05960938 20.97679688 4.11921875 20.95359375 5.2109375 20.9296875 C6.5989513 20.91093056 7.9869727 20.89273028 9.375 20.875 C10.42300781 20.84986328 10.42300781 20.84986328 11.4921875 20.82421875 C13.32897486 20.80655733 15.16601963 20.89696739 17 21 C19.66762484 23.66762484 19.24405355 25.66711414 19.26748681 29.29482794 C19.26302537 30.18644707 19.25856392 31.07806621 19.25396729 31.9967041 C19.25864726 33.41210157 19.25864726 33.41210157 19.26342177 34.85609293 C19.27143864 38.03758788 19.2650638 41.21889404 19.25878906 44.40039062 C19.26149729 46.67327487 19.26505726 48.94615823 19.26940918 51.21903992 C19.2785555 57.40689671 19.2749797 63.59468708 19.26865101 69.78254509 C19.26360259 76.24520935 19.26827922 82.70786776 19.27142334 89.17053223 C19.27530001 100.72146015 19.26906792 112.27235399 19.25890467 123.82327658 C19.24996873 134.30391166 19.25152064 144.78450244 19.26074219 155.26513672 C19.27143671 167.42561789 19.27543379 179.58606428 19.26951766 191.74655104 C19.26639267 198.1875156 19.26600308 204.62844961 19.27259064 211.06941223 C19.27834954 217.12351852 19.27439398 223.17754079 19.26280212 229.23163795 C19.26014772 231.45935234 19.26093383 233.68707375 19.26532745 235.91478539 C19.27075367 238.94438577 19.26398452 241.97371313 19.25396729 245.0032959 C19.26065945 246.3407246 19.26065945 246.3407246 19.26748681 247.70517206 C19.2283 253.7717 19.2283 253.7717 17 256 C14.70944214 256.24050903 14.70944214 256.24050903 11.81591797 256.22705078 C10.73494843 256.22689972 9.65397888 256.22674866 8.54025269 256.22659302 C7.36939117 256.21627045 6.19852966 256.20594788 4.9921875 256.1953125 C3.1985527 256.19106766 3.1985527 256.19106766 1.36868286 256.18673706 C-2.46264519 256.17551305 -6.29374222 256.15040431 -10.125 256.125 C-12.71744455 256.11497308 -15.30989275 256.10584673 -17.90234375 256.09765625 C-24.26830842 256.07556646 -30.63413771 256.04206706 -37 256 C-37 253.03 -37 250.06 -37 247 C-21.49 247 -5.98 247 10 247 C10 175.39 10 103.78 10 30 C-37.52 30 -85.04 30 -134 30 C-134 59.7 -134 89.4 -134 120 C-136.97 120 -139.94 120 -143 120 C-145.0910571 117.9089429 -144.15737373 113.31452141 -144.16113281 110.42871094 C-144.16609772 109.52951431 -144.17106262 108.63031769 -144.17617798 107.70387268 C-144.19084302 104.71403247 -144.19760963 101.72424535 -144.203125 98.734375 C-144.20887392 96.66269936 -144.21463169 94.59102374 -144.22039795 92.51934814 C-144.23092101 88.16800691 -144.23675478 83.81668421 -144.24023438 79.46533203 C-144.24571464 73.88875674 -144.26972725 68.31242618 -144.29820633 62.73592758 C-144.31683074 58.45340256 -144.32203826 54.17093643 -144.32357025 49.88837433 C-144.32659895 47.83267126 -144.33463475 45.77696928 -144.34775543 43.72130585 C-144.36480782 40.84363738 -144.36293731 37.96656567 -144.35644531 35.08886719 C-144.3656601 34.23879593 -144.37487488 33.38872467 -144.3843689 32.51289368 C-144.35194085 27.9248531 -144.18449985 24.59424522 -141 21 C-138.76324463 20.09310913 -138.76324463 20.09310913 -136.09472656 19.68896484 C-135.08024445 19.52424683 -134.06576233 19.35952881 -133.02053833 19.18981934 C-131.90516693 19.03178833 -130.78979553 18.87375732 -129.640625 18.7109375 C-128.46039764 18.52567505 -127.28017029 18.3404126 -126.06417847 18.14953613 C-122.80998803 17.64301827 -119.55395335 17.15630346 -116.29557037 16.6780014 C-112.86247025 16.16947128 -109.43315407 15.63661897 -106.00341797 15.10595703 C-100.88795675 14.31688171 -95.7712499 13.53677669 -90.65293694 12.76641655 C-81.03845801 11.31903695 -71.4331128 9.81794358 -61.83013916 8.29624557 C-55.38321134 7.27540811 -48.93511792 6.26194161 -42.48722839 5.24720001 C-40.12956722 4.87571963 -37.77210973 4.50296673 -35.41467285 4.13006592 C-31.68496396 3.54075853 -27.95428416 2.95799662 -24.22281265 2.37995911 C-22.85055432 2.16639134 -21.47861995 1.95072942 -20.10705185 1.73277283 C-6.15807851 -0.48140424 -6.15807851 -0.48140424 0 0 Z M-18.44262695 10.91796875 C-20.36405266 11.21828003 -20.36405266 11.21828003 -22.32429504 11.5246582 C-23.71230349 11.74552351 -25.10029859 11.96647273 -26.48828125 12.1875 C-27.91597849 12.41203585 -29.34372897 12.63623345 -30.77153015 12.86010742 C-34.51865539 13.44857028 -38.265042 14.0416112 -42.0112915 14.63562012 C-45.83847097 15.24162657 -49.66633371 15.84328439 -53.49414062 16.4453125 C-60.99676782 17.62596205 -68.49861976 18.81145064 -76 20 C-76 20.33 -76 20.66 -76 21 C-53.23 21 -30.46 21 -7 21 C-7 17.37 -7 13.74 -7 10 C-11.04404258 10 -14.48096634 10.29285465 -18.44262695 10.91796875 Z " fill="#192E32" transform="translate(237,0)"/>
<path d="M0 0 C17.01506186 14.11888112 17.01506186 14.11888112 19 21 C19.53795502 27.99341525 19.23902989 33.28291033 17 40 C20.3 43.3 23.6 46.6 27 50 C31.12403473 48.35143175 31.12403473 48.35143175 33 45 C32.53878719 42.97841416 32.53878719 42.97841416 31.5625 40.875 C29.27483201 34.58391302 29.87379281 29.76432673 32.375 23.625 C37.27904529 15.97253372 44.38770661 8.96409649 53 6 C59.14050415 5.05202231 64.79886605 5.52069629 70.21484375 8.66796875 C75.19876901 12.38682764 78.7647411 16.82370549 80 23 C80.69889015 29.925366 79.80615771 35.2874606 75.48828125 41 C69.31859428 48.32043758 63.05511231 54.90383829 53.16015625 55.9765625 C48.5437513 56.02665008 44.34339486 54.44779829 40 53 C38.68 54.32 37.36 55.64 36 57 C37.39080525 60.13738154 39.01022204 62.25475281 41.43994141 64.66699219 C42.14051666 65.36741638 42.84109192 66.06784058 43.56289673 66.78948975 C44.31815643 67.53442688 45.07341614 68.27936401 45.8515625 69.046875 C47.01261002 70.20367767 47.01261002 70.20367767 48.19711304 71.3838501 C50.66841923 73.84396856 53.14659183 76.29703848 55.625 78.75 C57.30254052 80.41750894 58.97962945 82.08547232 60.65625 83.75390625 C64.76560919 87.8412237 68.88062647 91.92277696 73 96 C71.64062915 98.8605891 70.35479531 100.85927699 68 103 C64.86261846 101.60919475 62.74524719 99.98977796 60.33300781 97.56005859 C59.63258362 96.85948334 58.93215942 96.15890808 58.21051025 95.43710327 C57.46557312 94.68184357 56.72063599 93.92658386 55.953125 93.1484375 C55.18192322 92.37440582 54.41072144 91.60037415 53.6161499 90.80288696 C51.15603144 88.33158077 48.70296152 85.85340817 46.25 83.375 C44.58249106 81.69745948 42.91452768 80.02037055 41.24609375 78.34375 C37.1587763 74.23439081 33.07722304 70.11937353 29 66 C25.85682248 67.38850337 23.78109623 68.9937168 21.39648438 71.45581055 C20.70897095 72.15961349 20.02145752 72.86341644 19.31311035 73.58854675 C18.58072144 74.34694351 17.84833252 75.10534027 17.09375 75.88671875 C15.53037686 77.48023865 13.9665614 79.0733247 12.40234375 80.66601562 C9.94146259 83.1828371 7.48466963 85.70332701 5.03564453 88.23168945 C2.67017496 90.66940699 0.28954638 93.09144529 -2.09375 95.51171875 C-2.82613892 96.2761882 -3.55852783 97.04065765 -4.31311035 97.82829285 C-5.00062378 98.52263931 -5.68813721 99.21698578 -6.39648438 99.93237305 C-6.99730835 100.55033249 -7.59813232 101.16829193 -8.21716309 101.80497742 C-10 103 -10 103 -12.11193848 102.77375793 C-14.3922862 101.83923482 -15.57693819 101.02224573 -17 99 C-16.59450622 95.42460825 -15.09066024 93.72385892 -12.58178711 91.24121094 C-11.86111557 90.52076599 -11.14044403 89.80032104 -10.39793396 89.05804443 C-9.61563919 88.29123352 -8.83334442 87.52442261 -8.02734375 86.734375 C-7.22970108 85.94097717 -6.43205841 85.14757935 -5.61024475 84.33013916 C-3.05961153 81.79630602 -0.49874774 79.27309895 2.0625 76.75 C3.79300142 75.0345436 5.5228278 73.31840595 7.25195312 71.6015625 C11.49349906 67.39310357 15.74349298 63.19332349 20 59 C17.58446749 54.0353181 14.87747913 49.82785915 10 47 C6.73995005 47.25213412 4.05874199 48.12626531 0.96484375 49.16796875 C-3.40257702 50.39360857 -6.88570065 49.80094788 -11 48 C-16.01368628 45.04303309 -19.854011 41.38925338 -23.875 37.25 C-24.46796875 36.64800781 -25.0609375 36.04601562 -25.671875 35.42578125 C-27.11923124 33.95508055 -28.5602763 32.4781733 -30 31 C-28.35 29.02 -26.7 27.04 -25 25 C-20.61036659 25.42446927 -18.34146521 28.39086087 -15.5 31.4375 C-9.77298432 37.53123194 -6.19345733 39.18065427 2 40 C-1.22635719 36.1374597 -4.52840415 32.4124117 -8.171875 28.9375 C-8.72004883 28.4105957 -9.26822266 27.88369141 -9.83300781 27.34082031 C-10.9366475 26.28761056 -12.05054616 25.24503842 -13.17480469 24.21386719 C-14.71875 22.734375 -14.71875 22.734375 -17 20 C-16.9109409 17.30479036 -16.25448956 16.35143796 -14.6875 14.1875 C-13 13 -13 13 -11.14697266 13.18945312 C-8.39934101 14.22676687 -7.00164342 15.67415208 -4.9609375 17.78125 C-3.84332031 18.92013672 -3.84332031 18.92013672 -2.703125 20.08203125 C-1.55070312 21.27892578 -1.55070312 21.27892578 -0.375 22.5 C1.15673023 24.07498507 2.69048522 25.64800431 4.2265625 27.21875 C4.90283691 27.91935547 5.57911133 28.61996094 6.27587891 29.34179688 C7.91201194 31.0800403 7.91201194 31.0800403 10 32 C9.08899831 22.9271668 5.74093989 18.37625221 -0.828125 12.3125 C-2.28937156 10.94684901 -3.65461336 9.47992531 -5 8 C-4.5970489 4.19028051 -2.78632872 2.516684 0 0 Z M45 23 C44.47019531 23.47824219 43.94039063 23.95648438 43.39453125 24.44921875 C40.38814899 27.3882311 39.60505178 29.94987788 39.375 34 C39.62725388 39.22638504 41.21626635 41.48653304 45 45 C48.79877349 46.89938674 52.88274403 46.74038375 57 46 C62.32205814 42.78685265 67.2172304 37.56553919 70 32 C70.53118173 28.20584481 70.85089348 24.53668822 68.953125 21.109375 C66.56513865 18.21569743 64.63905017 16.26809743 60.8984375 15.65625 C53.29158925 15.18523772 50.03432117 17.51917584 45 23 Z " fill="#192E32" transform="translate(147,39)"/>
<path d="M0 0 C0.82749756 -0.00555908 1.65499512 -0.01111816 2.50756836 -0.0168457 C8.17454847 0.04934544 13.25471643 0.9276444 18.75 2.3125 C18.09 5.2825 17.43 8.2525 16.75 11.3125 C15.38875 11.1475 14.0275 10.9825 12.625 10.8125 C-7.31199556 8.93640632 -24.75092633 12.03975036 -40.9375 24.4375 C-46.73019614 29.36297564 -50.97146893 35.06901392 -55.25 41.3125 C-57.89 39.9925 -60.53 38.6725 -63.25 37.3125 C-58.36371735 23.06512849 -44.33900718 13.61223145 -31.625 6.93359375 C-21.32351214 1.91760765 -11.38398095 0.06406706 0 0 Z " fill="#192E32" transform="translate(98.25,161.6875)"/>
<path d="M0 0 C3.3 0 6.6 0 10 0 C10 25.41 10 50.82 10 77 C6.7 77 3.4 77 0 77 C0 51.59 0 26.18 0 0 Z " fill="#192E32" transform="translate(76,34)"/>
<path d="M0 0 C18.48 0 36.96 0 56 0 C56 2.97 56 5.94 56 9 C55 10 55 10 52.79173279 10.12025452 C51.81688431 10.11803391 50.84203583 10.11581329 49.83764648 10.11352539 C48.73658066 10.11344986 47.63551483 10.11337433 46.50108337 10.11329651 C45.3031868 10.10813522 44.10529022 10.10297394 42.87109375 10.09765625 C41.65172623 10.0962413 40.4323587 10.09482635 39.17604065 10.09336853 C35.2631693 10.08774967 31.35035419 10.07519396 27.4375 10.0625 C24.79231853 10.05748743 22.14713617 10.0529241 19.50195312 10.04882812 C13.00128274 10.03777411 6.50064539 10.02101764 0 10 C0 6.7 0 3.4 0 0 Z " fill="#192E32" transform="translate(162,153)"/>
<path d="M0 0 C12.87 0 25.74 0 39 0 C39 3.3 39 6.6 39 10 C26.13 10 13.26 10 0 10 C0 6.7 0 3.4 0 0 Z " fill="#192E32" transform="translate(179,170)"/>
<path d="M0 0 C8.58 0 17.16 0 26 0 C26 3.3 26 6.6 26 10 C17.42 10 8.84 10 0 10 C0 6.7 0 3.4 0 0 Z " fill="#192E32" transform="translate(192,187)"/>
<path d="M0 0 C2.97 0.99 5.94 1.98 9 3 C8.34 5.97 7.68 8.94 7 12 C2.545 11.01 2.545 11.01 -2 10 C-1.54177532 6.53058454 -1.10868317 3.32604951 0 0 Z " fill="#192E32" transform="translate(30,207)"/>
<path d="M0 0 C2.97 0 5.94 0 9 0 C9 3.3 9 6.6 9 10 C6.03 10 3.06 10 0 10 C0 6.7 0 3.4 0 0 Z " fill="#192E32" transform="translate(226,187)"/>
<path d="M0 0 C2.97 0 5.94 0 9 0 C9 3.3 9 6.6 9 10 C6.03 10 3.06 10 0 10 C0 6.7 0 3.4 0 0 Z " fill="#192E32" transform="translate(226,170)"/>
<path d="M0 0 C2.97 0 5.94 0 9 0 C9.09765625 6.93359375 9.09765625 6.93359375 9 9 C8 10 8 10 6.15234375 10.09765625 C4.1015625 10.06510417 2.05078125 10.03255208 0 10 C0 6.7 0 3.4 0 0 Z " fill="#192E32" transform="translate(226,153)"/>
</svg>
